<?xml version="1.0" standalone="no"?><!DOCTYPE svg PUBLIC "-//W3C//DTD SVG 1.1//EN" "http://www.w3.org/Graphics/SVG/1.1/DTD/svg11.dtd"><svg t="1694662152815" class="icon" viewBox="0 0 1024 1024" version="1.1" xmlns="http://www.w3.org/2000/svg" p-id="5930" xmlns:xlink="http://www.w3.org/1999/xlink" width="32" height="32"><path d="M368.6 409.6h-155.4c-15.4 0-27.8 12.4-27.8 27.8v0.4c0 15.4 12.4 27.8 27.8 27.8h224.4c15.4 0 27.8-12.4 27.8-27.8V213.2c0-15.4-12.4-27.8-27.8-27.8h-0.4c-15.4 0-27.8 12.4-27.8 27.8v155.4L175.4 136c-5.2-5.2-12.2-8-19.6-8-7.4 0-14.4 2.8-19.6 8.2-10.8 10.8-10.8 28.4 0 39.2l232.4 234.2z m217.6 56h224.4c15.4 0 27.8-12.4 27.8-27.8v-0.4c0-15.4-12.4-27.8-27.8-27.8h-155.4L888 175.4c10.8-10.8 10.8-28.4 0-39.2-5.2-5.2-12.2-8.2-19.6-8.2-7.4 0-14.4 2.8-19.6 8L614.6 368.6v-155.4c0-15.4-12.4-27.8-27.8-27.8h-0.4c-15.4 0-27.8 12.4-27.8 27.8v224.4c0 15.4 12.4 28 27.6 28zM155.8 896c7.4 0 14.4-2.8 19.6-8l234.2-232.6v155.4c0 15.4 12.4 27.8 27.8 27.8h0.4c15.4 0 27.8-12.4 27.8-27.8V586.2c0-15.4-12.4-27.8-27.8-27.8H213.2c-15.4 0-27.8 12.4-27.8 27.8v0.4c0 15.4 12.4 27.8 27.8 27.8h155.4L136 848.6c-10.8 10.8-10.8 28.4 0 39.2 5.4 5.4 12.4 8.2 19.8 8.2z m430.4-57.6h0.4c15.4 0 27.8-12.4 27.8-27.8v-155.4L848.6 888c5.2 5.2 12.2 8 19.6 8 7.4 0 14.4-2.8 19.6-8.2 10.8-10.8 10.8-28.4 0-39.2L655.4 614.4h155.4c15.4 0 27.8-12.4 27.8-27.8v-0.4c0-15.4-12.4-27.8-27.8-27.8H586.2c-15.4 0-27.8 12.4-27.8 27.8v224.4c0.2 15.4 12.6 27.8 27.8 27.8z" p-id="5931"></path></svg>