<?xml version="1.0" standalone="no"?><!DOCTYPE svg PUBLIC "-//W3C//DTD SVG 1.1//EN" "http://www.w3.org/Graphics/SVG/1.1/DTD/svg11.dtd"><svg t="1694661297793" class="icon" viewBox="0 0 1024 1024" version="1.1" xmlns="http://www.w3.org/2000/svg" p-id="5769" xmlns:xlink="http://www.w3.org/1999/xlink" width="32" height="32"><path d="M624 744c-15.4 0-28 12.6-28 28 0 19.8-16.2 36-36 36H188c-19.8 0-36-16.2-36-36V252c0-19.8 16.2-36 36-36h372c19.8 0 36 16.2 36 36 0 15.4 12.6 28 28 28s28-12.6 28-28c0-50.8-41.2-92-92-92H188c-50.8 0-92 41.2-92 92v520c0 50.8 41.2 92 92 92h372c50.8 0 92-41.2 92-92 0-15.4-12.6-28-28-28z" p-id="5770"></path><path d="M745.8 316.2c-5.2-5.2-12.2-8.2-19.8-8.2-7.4 0-14.6 2.8-19.8 8.2-11 11-11 28.6 0 39.6l130.4 128.4H324c-15.4 0-28 12.6-28 28s12.6 28 28 28h513.2L710 668.4c-10.8 10.8-10.8 28.6 0 39.6l0.2 0.2c5.4 5 12.4 7.8 19.6 7.8 7.6 0 14.6-2.8 19.8-8.2l165.2-164.8c8.6-8.6 13-18.6 13-29.4 0-10.6-4.6-20.6-13-29l-169-168.4z" p-id="5771"></path></svg>