<?xml version="1.0" standalone="no"?><!DOCTYPE svg PUBLIC "-//W3C//DTD SVG 1.1//EN" "http://www.w3.org/Graphics/SVG/1.1/DTD/svg11.dtd"><svg t="1694658129263" class="icon" viewBox="0 0 1024 1024" version="1.1" xmlns="http://www.w3.org/2000/svg" p-id="5448" xmlns:xlink="http://www.w3.org/1999/xlink" width="32" height="32"><path d="M288 736m-84 0a84 84 0 1 0 168 0 84 84 0 1 0-168 0Z" p-id="5449"></path><path d="M735 544h-446C182.4 544 96 630.4 96 737S182.4 928 289 928h446c106.6 0 193-84.4 193-191S841.6 544 735 544zM288 864c-70.6 0-128-57.4-128-128s57.4-128 128-128 128 57.4 128 128-57.4 128-128 128z" p-id="5450"></path><path d="M736 288m-84 0a84 84 0 1 0 168 0 84 84 0 1 0-168 0Z" p-id="5451"></path><path d="M289 480h446c106.6 0 193-84.4 193-191S841.6 96 735 96h-446C182.4 96 96 182.4 96 289S182.4 480 289 480zM736 160c70.6 0 128 57.4 128 128s-57.4 128-128 128-128-57.4-128-128 57.4-128 128-128z" p-id="5452"></path></svg>