<?xml version="1.0" standalone="no"?><!DOCTYPE svg PUBLIC "-//W3C//DTD SVG 1.1//EN" "http://www.w3.org/Graphics/SVG/1.1/DTD/svg11.dtd"><svg t="1694663232891" class="icon" viewBox="0 0 1024 1024" version="1.1" xmlns="http://www.w3.org/2000/svg" p-id="6090" xmlns:xlink="http://www.w3.org/1999/xlink" width="32" height="32"><path d="M557.2 512l136.4-136.4c12.4-12.4 12.4-32.8 0-45.2-12.4-12.4-32.8-12.4-45.2 0L512 466.8l-136.4-136.4c-12.4-12.4-32.8-12.4-45.2 0-6.2 6.2-9.4 14.4-9.4 22.6 0 8.2 3.2 16.4 9.4 22.6l136.4 136.4-136.4 136.4c-6.2 6.2-9.4 14.4-9.4 22.6 0 8.2 3.2 16.4 9.4 22.6 12.4 12.4 32.8 12.4 45.2 0l136.4-136.4 136.4 136.4c12.4 12.4 32.8 12.4 45.2 0 12.4-12.4 12.4-32.8 0-45.2L557.2 512z" p-id="6091"></path></svg>