<?xml version="1.0" standalone="no"?><!DOCTYPE svg PUBLIC "-//W3C//DTD SVG 1.1//EN" "http://www.w3.org/Graphics/SVG/1.1/DTD/svg11.dtd"><svg t="1694657831748" class="icon" viewBox="0 0 1024 1024" version="1.1" xmlns="http://www.w3.org/2000/svg" p-id="4655" xmlns:xlink="http://www.w3.org/1999/xlink" width="32" height="32"><path d="M792 288H128c-52.8 0-96 43.2-96 96v256c0 52.8 43.2 96 96 96h664c52.8 0 96-43.2 96-96V384c0-52.8-43.2-96-96-96z m40 352c0 22-18 40-40 40H128c-22 0-40-18-40-40V384c0-22 18-40 40-40h664c22 0 40 18 40 40v256z m96-230.8v205.6c32 0 64-55.4 64-102.8s-32-102.8-64-102.8z" p-id="4656"></path><path d="M768 384H152c-13.2 0-24 10.8-24 24v208c0 13.2 10.8 24 24 24h616c13.2 0 24-10.8 24-24V408c0-13.2-10.8-24-24-24z" p-id="4657"></path></svg>